<?xml version="1.0" encoding="utf-8"?>
<!-- Generator: Adobe Illustrator 24.1.0, SVG Export Plug-In . SVG Version: 6.00 Build 0)  -->
<svg version="1.1" id="Capa_1" xmlns="http://www.w3.org/2000/svg" xmlns:xlink="http://www.w3.org/1999/xlink" x="0px" y="0px"
	 viewBox="0 0 3024 1054.3" style="enable-background:new 0 0 3024 1054.3;" xml:space="preserve">
<g>
	<path d="M401.5,797.2C184.8,797.2,5.7,625.2,0.1,409C-5.5,189.3,170,5.9,391.5,0.1c90.3-2.4,179.7,26,251.7,79.7L568.6,180
		C518.2,142.4,458,123.4,394.8,125C242.1,129,121.1,254.9,125,405.8c3.8,148.4,127.2,266.5,276.5,266.5c2.4,0,4.9,0,7.3-0.1
		c71.2-1.8,138.2-30.3,188.6-80.1l87.8,88.9c-73.1,72.2-170.1,113.4-273.2,116.1C408.6,797.2,405.1,797.2,401.5,797.2z"/>
</g>
<g>
	<polygon points="369.8,399.4 630.2,726.5 733.8,726.4 473.5,399.4 734.1,72.4 731.5,70.7 631.7,70.8 	"/>
</g>
<g>
	<polygon points="929.3,725.9 669.2,398.6 565.6,398.6 825.6,725.8 564.7,1052.6 567.4,1054.3 667.2,1054.3 	"/>
</g>
<g>
	<path d="M1240.8,476.8c0,127.5-77.5,195.1-172,195.1c-97.8,0-166.5-75.8-166.5-187.9c0-117.6,73.1-194.5,172-194.5
		C1175.4,289.4,1240.8,366.9,1240.8,476.8z M953.4,482.9c0,79.1,42.9,150,118.2,150c75.8,0,118.7-69.8,118.7-153.9
		c0-73.6-38.5-150.6-118.2-150.6C992.9,328.4,953.4,401.5,953.4,482.9z"/>
	<path d="M1301.2,486.7c0-34.1-1.1-61.5-2.2-86.8h43.4l2.2,45.6h1.1c19.8-32.4,51.1-51.7,94.5-51.7c64.3,0,112.7,54.4,112.7,135.2
		c0,95.6-58.3,142.9-120.9,142.9c-35.2,0-65.9-15.4-81.9-41.8h-1.1v144.5h-47.8V486.7z M1349,557.6c0,7.1,1.1,13.7,2.2,19.8
		c8.8,33.5,37.9,56.6,72.5,56.6c51.1,0,80.8-41.8,80.8-102.8c0-53.3-28-98.9-79.1-98.9c-33,0-63.7,23.6-73.1,59.9
		c-1.6,6-3.3,13.2-3.3,19.8V557.6z"/>
	<path d="M1640.8,541.7c1.1,65.4,42.9,92.3,91.2,92.3c34.6,0,55.5-6,73.6-13.7l8.2,34.6c-17,7.7-46.2,16.5-88.5,16.5
		c-81.9,0-130.8-53.9-130.8-134.1c0-80.2,47.3-143.4,124.7-143.4c86.8,0,109.9,76.4,109.9,125.3c0,9.9-1.1,17.6-1.6,22.5H1640.8z
		 M1782.6,507c0.5-30.8-12.6-78.6-67-78.6c-48.9,0-70.3,45.1-74.2,78.6H1782.6z"/>
	<path d="M1889.2,471.9c0-27.5-0.5-50-2.2-72h42.9l2.7,44h1.1c13.2-25.3,44-50,87.9-50c36.8,0,94,22,94,113.2v158.8h-48.4V512.5
		c0-42.9-15.9-78.6-61.5-78.6c-31.9,0-56.6,22.5-64.8,49.5c-2.2,6-3.3,14.3-3.3,22.5v159.9h-48.4V471.9z"/>
	<path d="M2189.3,607.6c21.4,13.2,52.8,24.2,85.7,24.2c48.9,0,77.5-25.8,77.5-63.2c0-34.6-19.8-54.4-69.8-73.6
		c-60.4-21.4-97.8-52.8-97.8-105c0-57.7,47.8-100.6,119.8-100.6c37.9,0,65.4,8.8,81.9,18.1l-13.2,39c-12.1-6.6-36.8-17.6-70.3-17.6
		c-50.6,0-69.8,30.2-69.8,55.5c0,34.6,22.5,51.7,73.6,71.4c62.6,24.2,94.5,54.4,94.5,108.8c0,57.2-42.3,106.6-129.7,106.6
		c-35.7,0-74.7-10.4-94.5-23.6L2189.3,607.6z"/>
	<path d="M2465.1,275.7h48.4v390.2h-48.4V275.7z"/>
	<path d="M2835.5,530.7c0,98.4-68.1,141.2-132.4,141.2c-72,0-127.5-52.8-127.5-136.8c0-89,58.3-141.2,131.9-141.2
		C2783.9,393.8,2835.5,449.3,2835.5,530.7z M2624.5,533.4c0,58.3,33.5,102.2,80.8,102.2c46.2,0,80.8-43.4,80.8-103.3
		c0-45.1-22.5-102.2-79.7-102.2C2649.2,430.1,2624.5,482.9,2624.5,533.4z"/>
	<path d="M2954.8,323.5v76.4h69.2v36.8h-69.2v143.4c0,33,9.3,51.7,36.3,51.7c12.6,0,22-1.6,28-3.3l2.2,36.3
		c-9.3,3.8-24.2,6.6-42.9,6.6c-22.5,0-40.7-7.1-52.2-20.3c-13.7-14.3-18.7-37.9-18.7-69.2V436.7h-41.2v-36.8h41.2v-63.7
		L2954.8,323.5z"/>
</g>
<g>
</g>
<g>
</g>
<g>
</g>
<g>
</g>
<g>
</g>
<g>
</g>
</svg>
